# xmcd
# 
# Track frame offsets:
#     180
#     18277
#     37945
#     50915
#     72945
#     87458
#     106874
#     126592
#     145051
#     168135
#     184350
#     201384
# 
# Disc length: 2944
# 
# Revision: 3
# Processed by: cddbd v1.5.2PL0 Copyright (c) Steve Scherf et al.
# Submitted via: fre:ac v1.0.31
# 
DISCID=ad0b7e0c
DTITLE=Various Artist - Inspirational Moments
DYEAR=1996
DGENRE=New Age
TTITLE0=Adiemus - Adiemus
TTITLE1=Enigma - Return to Innocence
TTITLE2=Ennio Morricone - Theme from The Mission
TTITLE3=Elbosco - Nirvana
TTITLE4=Michael Nyman - The Heart Asks The Pleasure First (Theme From The Piano)
TTITLE5=Robbie Robertson and The Red Road Ensemble - Mahk Jchi (Heartbeat Drum Song)
TTITLE6=Enigma - Sadness Part 1 (Extended Trance Mix)
TTITLE7=Sacred Spirit - Yeha Noha (Wishes of Happiness and Prosperity)
TTITLE8=Ennio Morricone - Chi Mai
TTITLE9=Dao Dezi - Ti Eliz Iza
TTITLE10=Madredeus - O Pastor
TTITLE11=Mike Oldfield - Tubular Bells Part 1 (Edit)
EXTD=Premiere 12
EXTT0=
EXTT1=
EXTT2=
EXTT3=
EXTT4=
EXTT5=
EXTT6=
EXTT7=
EXTT8=
EXTT9=
EXTT10=
EXTT11=
PLAYORDER=
